<svg class="skill-range" width="66" height="10" viewBox="0 0 66 10" xmlns="http://www.w3.org/2000/svg" xmlns:xlink="http://www.w3.org/1999/xlink"><title>skill-rank</title><defs><path d="M4.5 9C6.985 9 9 6.985 9 4.5S6.985 0 4.5 0 0 2.015 0 4.5 2.015 9 4.5 9zm14 0C20.985 9 23 6.985 23 4.5S20.985 0 18.5 0 14 2.015 14 4.5 16.015 9 18.5 9zm14 0C34.985 9 37 6.985 37 4.5S34.985 0 32.5 0 28 2.015 28 4.5 30.015 9 32.5 9zm14 0C48.985 9 51 6.985 51 4.5S48.985 0 46.5 0 42 2.015 42 4.5 44.015 9 46.5 9zm15 0C63.985 9 66 6.985 66 4.5S63.985 0 61.5 0 57 2.015 57 4.5 59.015 9 61.5 9z" id="a"/></defs><g transform="translate(0 .5)" fill="none" fill-rule="evenodd"><mask id="b" fill="#fff"><use xlink:href="#a"/></mask><use fill="#D8D8D8" xlink:href="#a"/><rect class="percent" fill="#FFE700" mask="url(#b)" x="-1" y="-1" width="58" height="11"/></g></svg>